HIERARCHY
ROOT Hips
{
	OFFSET 0.000000 0.000000 0.000000
	CHANNELS 6 Xposition Yposition Zposition Zrotation Yrotation Xrotation 
	JOINT LHipJoint
	{
		OFFSET 0.000000 0.000000 0.000000
		CHANNELS 3 Zrotation Yrotation Xrotation
		JOINT LeftUpLeg
		{
			OFFSET 1.363060 -1.794630 0.839290
			CHANNELS 3 Zrotation Yrotation Xrotation
			JOINT LeftLeg
			{
				OFFSET 2.448110 -6.726130 0.000000
				CHANNELS 3 Zrotation Yrotation Xrotation
				JOINT LeftFoot
				{
					OFFSET 2.562200 -7.039590 0.000000
					CHANNELS 3 Zrotation Yrotation Xrotation
					JOINT LeftToeBase
					{
						OFFSET 0.157640 -0.433110 2.322550
						CHANNELS 3 Zrotation Yrotation Xrotation
						End Site
						{
							OFFSET 0.000000 0.000000 0.000000
						}
					}
				}
			}
		}
	}
	JOINT RHipJoint
	{
		OFFSET 0.000000 0.000000 0.000000
		CHANNELS 3 Zrotation Yrotation Xrotation
		JOINT RightUpLeg
		{
			OFFSET -1.305520 -1.794630 0.839290
			CHANNELS 3 Zrotation Yrotation Xrotation
			JOINT RightLeg
			{
				OFFSET -2.542530 -6.985550 0.000000
				CHANNELS 3 Zrotation Yrotation Xrotation
				JOINT RightFoot
				{
					OFFSET -2.568260 -7.056230 0.000000
					CHANNELS 3 Zrotation Yrotation Xrotation
					JOINT RightToeBase
					{
						OFFSET -0.164730 -0.452590 2.363150
						CHANNELS 3 Zrotation Yrotation Xrotation
						End Site
						{
							OFFSET 0.000000 0.000000 0.000000
						}
					}
				}
			}
		}
	}
	JOINT LowerBack
	{
		OFFSET 0.000000 0.000000 0.000000
		CHANNELS 3 Zrotation Yrotation Xrotation
		JOINT Spine
		{
			OFFSET 0.028270 2.035590 -0.193380
			CHANNELS 3 Zrotation Yrotation Xrotation
			JOINT Spine1
			{
				OFFSET 0.056720 2.048850 -0.042750
				CHANNELS 3 Zrotation Yrotation Xrotation
				JOINT Neck
				{
					OFFSET 0.000000 0.000000 0.000000
					CHANNELS 3 Zrotation Yrotation Xrotation
					JOINT Neck1
					{
						OFFSET -0.054170 1.746240 0.172020
						CHANNELS 3 Zrotation Yrotation Xrotation
						JOINT Head
						{
							OFFSET 0.104070 1.761360 -0.123970
							CHANNELS 3 Zrotation Yrotation Xrotation
							End Site
							{
								OFFSET 0.000000 0.000000 0.000000
							}
						}
					}
				}
				JOINT LeftShoulder
				{
					OFFSET 0.000000 0.000000 0.000000
					CHANNELS 3 Zrotation Yrotation Xrotation
					JOINT LeftArm
					{
						OFFSET 3.362410 1.200890 -0.311210
						CHANNELS 3 Zrotation Yrotation Xrotation
						JOINT LeftForeArm
						{
							OFFSET 4.983000 -0.000000 -0.000000
							CHANNELS 3 Zrotation Yrotation Xrotation
							JOINT LeftHand
							{
								OFFSET 3.483560 -0.000000 -0.000000
								CHANNELS 3 Zrotation Yrotation Xrotation
								JOINT LeftFingerBase
								{
									OFFSET 0.000000 0.000000 0.000000
									CHANNELS 3 Zrotation Yrotation Xrotation
									JOINT LeftHandIndex1
									{
										OFFSET 0.715260 -0.000000 -0.000000
										CHANNELS 3 Zrotation Yrotation Xrotation
										End Site
										{
											OFFSET 0.000000 0.000000 0.000000
										}
									}
								}
								JOINT LThumb
								{
									OFFSET 0.000000 0.000000 0.000000
									CHANNELS 3 Zrotation Yrotation Xrotation
									End Site
									{
										OFFSET 0.000000 0.000000 0.000000
									}
								}
							}
						}
					}
				}
				JOINT RightShoulder
				{
					OFFSET 0.000000 0.000000 0.000000
					CHANNELS 3 Zrotation Yrotation Xrotation
					JOINT RightArm
					{
						OFFSET -3.136600 1.374050 -0.404650
						CHANNELS 3 Zrotation Yrotation Xrotation
						JOINT RightForeArm
						{
							OFFSET -5.241900 -0.000000 -0.000000
							CHANNELS 3 Zrotation Yrotation Xrotation
							JOINT RightHand
							{
								OFFSET -3.444170 -0.000000 -0.000000
								CHANNELS 3 Zrotation Yrotation Xrotation
								JOINT RightFingerBase
								{
									OFFSET 0.000000 0.000000 0.000000
									CHANNELS 3 Zrotation Yrotation Xrotation
									JOINT RightHandIndex1
									{
										OFFSET -0.622530 -0.000000 -0.000000
										CHANNELS 3 Zrotation Yrotation Xrotation
										End Site
										{
											OFFSET 0.000000 0.000000 0.000000
										}
									}
								}
								JOINT RThumb
								{
									OFFSET 0.000000 0.000000 0.000000
									CHANNELS 3 Zrotation Yrotation Xrotation
									End Site
									{
										OFFSET 0.000000 0.000000 0.000000
									}
								}
							}
						}
					}
				}
			}
		}
	}
}
MOTION
Frames: 9
Frame Time: 0.008333
-30.415164 17.459100 1.141637 57.959955 85.861812 52.745070 2.382275 -1.416523 0.195264 -17.197883 2.889229 15.315391 -1.955926 -0.339604 -0.663299 -1.201891 12.489153 -11.494963 0.668700 -5.229500 -14.564300 -4.211199 6.012670 -7.541709 10.107191 -11.751890 20.195623 -0.627440 -2.136209 1.934734 -0.384801 3.679870 -11.462723 -0.004300 -0.421400 1.158000 -2.263927 1.699063 8.562556 0.069921 2.177978 -2.398656 -2.653027 1.009134 2.375035 0.386335 1.968280 -19.210222 4.099653 2.076099 7.245824 -1.412300 1.170200 10.058800 6.693371 -1.113846 0.031707 -91.364861 -1.395537 37.966273 10.056721 -18.742791 -1.893182 -0.081691 0.704544 17.486082 14.020536 -22.985977 -5.836300 -7.125000 0.000000 0.000000 -9.207600 5.950000 8.314100 -6.500893 1.598149 1.805910 89.910576 -3.659492 35.014985 -18.452791 33.089166 -4.901510 0.486263 -2.798666 4.781682 -9.915310 -34.110446 5.588000 7.125000 0.000000 0.000000 24.171800 -60.002600 -9.168800 
-30.415574 17.459715 1.141739 57.670368 85.845274 52.429773 2.381039 -1.429201 0.197342 -17.001640 3.384797 15.068266 -1.928625 -0.259747 -0.454658 -1.147660 12.048973 -11.144898 0.698700 -5.343100 -14.889800 -4.211308 6.003109 -7.540183 10.123343 -11.719335 20.218442 -0.625666 -2.159979 2.001581 -0.390017 3.681244 -11.564345 -0.008000 -0.577900 1.588000 -2.275241 1.699056 8.582833 0.073790 2.178353 -2.400895 -2.617024 1.005404 2.364361 0.321481 1.951413 -19.242439 4.165375 2.081424 7.281591 -1.360400 1.177500 10.088200 6.684286 -1.108060 0.027517 -91.318977 -1.440143 38.124710 10.003605 -18.660263 -1.875477 -0.074669 0.705954 17.369582 13.760825 -23.140296 -5.759500 -7.125000 0.000000 0.000000 -9.381100 5.824900 8.497900 -6.497681 1.605597 1.805760 89.851132 -3.675639 35.077760 -18.523167 33.163884 -4.940258 0.482663 -2.808624 4.755384 -10.013441 -34.538436 5.705300 7.125000 0.000000 0.000000 24.426300 -60.398200 -9.504500 
-30.416291 17.459100 1.142354 57.019263 85.815576 51.811480 2.380811 -1.447756 0.189908 -16.961225 3.499327 15.025524 -1.924695 -0.266157 -0.466986 -1.144065 12.023964 -11.144158 0.663200 -5.208500 -14.504100 -4.219763 5.980584 -7.530835 10.133087 -11.716156 20.109490 -0.629017 -2.200486 2.106219 -0.388359 3.790136 -11.534943 -0.008500 -0.595300 1.635700 -2.295814 1.714710 8.526279 0.074342 2.200708 -2.401017 -2.598757 1.010043 2.405221 0.352085 1.953022 -19.375037 4.161792 2.085855 7.375088 -1.370000 1.186000 10.176200 6.687345 -1.102875 0.020261 -91.304813 -1.401060 38.011819 10.103820 -18.813000 -1.909066 -0.068704 0.703654 17.506186 13.619248 -23.129461 -5.694900 -7.125000 0.000000 0.000000 -9.470800 5.855200 8.576000 -6.490531 1.604528 1.801194 89.815134 -3.654506 35.111066 -18.589117 33.233359 -4.971046 0.486414 -2.813728 4.655308 -10.030644 -34.784687 5.752800 7.125000 0.000000 0.000000 24.616400 -60.616800 -9.712900 
-30.416086 17.457256 1.143173 57.034915 85.813043 51.871563 2.379939 -1.442278 0.188536 -17.116453 3.102557 15.235959 -1.946584 -0.357678 -0.702503 -1.171076 12.305168 -11.569087 0.551000 -4.755100 -13.211300 -4.222627 5.978711 -7.528229 10.131918 -11.719406 20.046512 -0.632806 -2.189931 2.075733 -0.383178 3.833368 -11.435450 -0.008000 -0.576500 1.584100 -2.315931 1.724277 8.453345 0.070873 2.211934 -2.404416 -2.611292 1.015696 2.438193 0.438679 1.934919 -19.442150 4.089526 2.038870 7.467818 -1.437300 1.168400 10.246300 6.693648 -1.100972 0.015732 -91.272685 -1.437779 38.029112 10.109012 -18.823661 -1.911280 -0.069954 0.706832 17.594974 13.749884 -23.202339 -5.768500 -7.125000 0.000000 0.000000 -9.392000 5.763000 8.519400 -6.484760 1.599740 1.795498 89.828626 -3.634131 35.039400 -18.601067 33.247429 -4.974494 0.499335 -2.814610 4.566710 -9.864081 -34.800143 5.669800 7.125000 0.000000 0.000000 24.795200 -60.594000 -9.775000 
-30.416496 17.457052 1.143993 57.246518 85.863280 52.068659 2.376478 -1.436411 0.200682 -16.884763 3.484518 14.960251 -1.920968 -0.274525 -0.481590 -1.104253 11.785531 -11.292350 0.545600 -4.732100 -13.146100 -4.227333 5.982477 -7.532154 10.217120 -11.703248 20.110511 -0.631643 -2.156591 1.978560 -0.382618 3.736966 -11.426991 -0.006500 -0.521400 1.432800 -2.311948 1.686739 8.467672 0.089011 2.157891 -2.412200 -2.545897 0.986380 2.422137 0.400937 1.944678 -19.482293 4.033190 2.070627 7.549402 -1.459300 1.177000 10.308100 6.700403 -1.101779 0.011677 -91.351515 -1.430743 37.817315 10.088867 -18.796995 -1.906098 -0.068737 0.712196 17.852656 13.904257 -23.347495 -5.869700 -7.125000 0.000000 0.000000 -9.302400 5.593200 8.466400 -6.475120 1.599193 1.789568 89.738923 -3.621725 35.157925 -18.616444 33.246201 -4.975998 0.501658 -2.809732 4.470602 -9.889733 -34.790701 5.681200 7.125000 0.000000 0.000000 24.766500 -60.594300 -9.763100 
-30.417827 17.457666 1.144710 57.078669 85.900983 51.877091 2.373743 -1.440664 0.206266 -16.658490 3.872298 14.705424 -1.896843 -0.183359 -0.236834 -1.060180 11.401873 -10.977617 0.592500 -4.928200 -13.703900 -4.234800 5.973725 -7.531286 10.309378 -11.677267 20.145117 -0.630070 -2.150787 1.954840 -0.383994 3.660470 -11.464233 -0.004100 -0.411900 1.131700 -2.310637 1.659086 8.501283 0.110683 2.117678 -2.417929 -2.479516 0.962388 2.400391 0.438200 1.984529 -19.545680 3.927291 2.115840 7.610387 -1.526000 1.190000 10.367300 6.716420 -1.111132 0.010138 -91.442675 -1.416365 37.583068 10.090506 -18.805256 -1.908406 -0.064469 0.713244 18.021844 13.873846 -23.411997 -5.871000 -7.125000 0.000000 0.000000 -9.325800 5.531100 8.499500 -6.461839 1.592806 1.782731 89.657962 -3.583423 35.223719 -18.582865 33.187225 -4.955738 0.499167 -2.800700 4.400549 -9.959652 -34.620067 5.689400 7.125000 0.000000 0.000000 24.559100 -60.463300 -9.598400 
-30.417008 17.458281 1.144300 56.980272 85.891102 51.763635 2.372314 -1.442140 0.205909 -16.676382 3.838258 14.753712 -1.899768 -0.192392 -0.257634 -1.057248 11.414997 -11.114409 0.550700 -4.754000 -13.208100 -4.232358 5.971534 -7.531119 10.298889 -11.665078 20.161128 -0.629933 -2.153721 1.965416 -0.386745 3.691867 -11.508537 -0.003300 -0.372500 1.023500 -2.321041 1.653970 8.491551 0.114252 2.111463 -2.416128 -2.470829 0.956360 2.424852 0.483757 2.005768 -19.645269 3.915547 2.135913 7.646118 -1.541600 1.202200 10.415600 6.721753 -1.108688 0.008059 -91.414913 -1.410094 37.721308 10.135274 -18.872852 -1.922658 -0.066635 0.712660 17.858795 13.898236 -23.400398 -5.878800 -7.125000 0.000000 0.000000 -9.310100 5.539900 8.483100 -6.463270 1.591687 1.778265 89.648553 -3.521453 35.174251 -18.512064 33.106133 -4.924232 0.500700 -2.796246 4.423309 -9.879234 -34.458203 5.622400 7.125000 0.000000 0.000000 24.506700 -60.305400 -9.483500 
-30.415574 17.458281 1.142968 57.019286 85.869278 51.811584 2.373497 -1.439339 0.200433 -16.889174 3.455310 15.001156 -1.922141 -0.261186 -0.440957 -1.096784 11.754197 -11.375926 0.521600 -4.628800 -12.852700 -4.228254 5.976337 -7.529057 10.236179 -11.700146 20.138068 -0.630100 -2.160457 1.986942 -0.387589 3.747872 -11.515975 -0.003400 -0.376700 1.035000 -2.333077 1.643102 8.443625 0.110977 2.099319 -2.412935 -2.463769 0.946507 2.477392 0.415975 2.014993 -19.750417 4.026513 2.182462 7.672329 -1.456600 1.231400 10.454700 6.710660 -1.092190 0.003122 -91.379825 -1.445051 37.795658 10.154224 -18.898440 -1.928517 -0.066128 0.712949 17.875336 13.900838 -23.408226 -5.881600 -7.125000 0.000000 0.000000 -9.309200 5.531500 8.483800 -6.470952 1.598891 1.778564 89.634561 -3.482197 35.303549 -18.537482 33.146457 -4.947734 0.491299 -2.810007 4.549665 -9.946271 -34.918265 5.728500 7.125000 0.000000 0.000000 24.826100 -60.719800 -9.862900 
-30.415983 17.458178 1.143480 57.154390 85.856316 51.951723 2.375790 -1.433847 0.196156 -17.063319 3.132746 15.200686 -1.940441 -0.314573 -0.586479 -1.152216 12.140048 -11.415675 0.577700 -4.867200 -13.530200 -4.226614 5.979206 -7.528908 10.232488 -11.678457 20.151542 -0.629310 -2.152048 1.969136 -0.388384 3.687071 -11.537672 -0.005800 -0.493500 1.355900 -2.358708 1.647087 8.433288 0.107788 2.103882 -2.414427 -2.455865 0.948622 2.477915 0.346691 1.993581 -19.735688 4.091173 2.178313 7.669841 -1.404600 1.231800 10.447600 6.705853 -1.084965 0.001581 -91.366102 -1.489562 37.750618 10.142690 -18.880395 -1.925463 -0.062150 0.718358 18.047288 13.930258 -23.607900 -5.941100 -7.125000 0.000000 0.000000 -9.302100 5.321800 8.514700 -6.486249 1.603183 1.776241 89.672485 -3.429402 35.090332 -18.427594 33.031618 -4.900416 0.492126 -2.803008 4.599211 -9.853999 -34.571510 5.626300 7.125000 0.000000 0.000000 24.625400 -60.396700 -9.586800 
